<svg width="18" height="24" viewBox="0 0 18 24" fill="none" xmlns="http://www.w3.org/2000/svg">
<path d="M9 0C4.03712 0 0 4.03756 0 9C0 15.6397 8.30372 23.5312 8.65726 23.8643C8.7539 23.9546 8.87695 24 9 24C9.12305 24 9.2461 23.9546 9.34282 23.8643C9.69632 23.5312 18 15.6397 18 9C18 4.03756 13.9629 0 9 0ZM9 22.8003C7.42872 21.2315 0.999986 14.4766 0.999986 9C0.999986 4.58886 4.58886 0.999987 9 0.999987C13.4111 0.999987 17 4.58886 17 9C17 14.4766 10.5713 21.2315 9 22.8003Z" fill="#1C1C1C"/>
<path d="M9.00001 4C6.24317 4 4 6.24317 4 9.00001C4 11.7569 6.24321 14 9.00001 14C11.7568 14 14 11.7569 14 9.00001C14 6.24317 11.7569 4 9.00001 4ZM9.00001 13C6.79394 13 5.00003 11.2056 5.00003 9.00001C5.00003 6.79446 6.79398 5.00003 9.00001 5.00003C11.206 5.00003 13 6.79446 13 9.00001C13 11.2056 11.2061 13 9.00001 13Z" fill="#1C1C1C"/>
</svg>
