<svg width="40" height="40" viewBox="0 0 40 40" fill="none" xmlns="http://www.w3.org/2000/svg">
<mask id="mask0_2629_10292" style="mask-type:alpha" maskUnits="userSpaceOnUse" x="6" y="6" width="28" height="28">
<path d="M6 6H34V22H20V34H6V6Z" fill="#D9D9D9"/>
</mask>
<g mask="url(#mask0_2629_10292)">
<path fill-rule="evenodd" clip-rule="evenodd" d="M9.0735 13.833L7.11392 31.9614H28.8937L27.0598 13.833H9.0735ZM27.9637 12.833H8.17577L6 32.9614H30L27.9637 12.833Z" fill="#C00000"/>
<path fill-rule="evenodd" clip-rule="evenodd" d="M18.1969 6.0013C17.6214 5.98719 17.0488 6.08776 16.5125 6.29715C15.9762 6.50654 15.487 6.82056 15.0733 7.22093C14.6596 7.62129 14.3297 8.09998 14.1028 8.62912C13.876 9.15825 13.7567 9.72724 13.752 10.3029V15.997L14.752 15.9828V10.3073C14.7561 9.86563 14.8479 9.42915 15.0219 9.02315C15.1965 8.61598 15.4503 8.24761 15.7687 7.93952C16.0871 7.63144 16.4635 7.38979 16.8762 7.22866C17.2889 7.06753 17.7295 6.99014 18.1724 7.001L18.1969 7.00161L18.2214 7.001C18.6643 6.99014 19.1049 7.06753 19.5176 7.22866C19.9303 7.38979 20.3068 7.63144 20.6251 7.93952C20.9435 8.24761 21.1973 8.61597 21.3719 9.02315C21.546 9.42915 21.6377 9.86565 21.6419 10.3073V15.8703H22.6419V10.3029C22.6371 9.72724 22.5179 9.15825 22.291 8.62912C22.0642 8.09998 21.7343 7.62129 21.3206 7.22093C20.9069 6.82056 20.4176 6.50654 19.8813 6.29715C19.345 6.08776 18.7725 5.98719 18.1969 6.0013Z" fill="#C00000"/>
</g>
<path fill-rule="evenodd" clip-rule="evenodd" d="M28.5 27.046L27.699 25.9741C26.9232 24.9361 26.0375 24.8559 25.3823 25.1468C24.6657 25.4649 24 26.3301 24 27.6186C24 28.6733 24.6191 29.6768 25.6636 30.6645C26.5285 31.4824 27.5615 32.1771 28.5 32.7994C29.4385 32.1771 30.4715 31.4823 31.3364 30.6645C32.3809 29.6768 33 28.6732 33 27.6186C33 26.3301 32.3343 25.4649 31.6177 25.1468C30.9625 24.8559 30.0768 24.9361 29.301 25.9741L28.5 27.046ZM28.5 34C28.3647 33.9095 28.2236 33.8161 28.0779 33.7196C26.0014 32.3449 23 30.3578 23 27.6186C23 24.6888 25.7456 22.9999 27.8015 24.6439C28.046 24.8395 28.2808 25.0822 28.5 25.3755C28.7192 25.0822 28.954 24.8395 29.1985 24.6439C31.2544 22.9999 34 24.6888 34 27.6186C34 30.3577 30.9984 32.345 28.922 33.7197C28.7763 33.8161 28.6352 33.9095 28.5 34Z" fill="#C00000"/>
</svg>
