<svg width="25" height="25" viewBox="0 0 25 25" fill="none" xmlns="http://www.w3.org/2000/svg">
<path fill-rule="evenodd" clip-rule="evenodd" d="M11.8097 0.0376151C11.9316 -0.0125384 12.0684 -0.0125384 12.1903 0.0376151L21.6903 3.94671C21.8777 4.02382 22 4.20644 22 4.40909V14.5C22 16.838 20.2424 18.8453 18.2594 20.5133C17.2515 21.3611 16.1473 22.1517 15.1072 22.8804C14.9325 23.0028 14.7598 23.1233 14.5898 23.2419C13.7403 23.8348 12.9573 24.3812 12.3098 24.8924C12.1282 25.0359 11.8718 25.0359 11.6902 24.8924C11.0427 24.3812 10.2597 23.8348 9.41018 23.2419C9.2402 23.1233 9.06755 23.0028 8.89279 22.8804C7.85274 22.1517 6.74848 21.3611 5.74065 20.5133C3.75758 18.8453 2 16.838 2 14.5V4.40909C2 4.20644 2.12233 4.02382 2.30974 3.94671L11.8097 0.0376151ZM3 4.74402V14.5C3 16.3439 4.40908 18.0866 6.38435 19.748C7.35569 20.5651 8.42851 21.3341 9.46659 22.0614C9.63689 22.1807 9.80657 22.2991 9.97482 22.4165C10.6975 22.9208 11.3938 23.4067 12 23.8677C12.6062 23.4067 13.3025 22.9208 14.0252 22.4165C14.1934 22.2991 14.3631 22.1807 14.5334 22.0614C15.5715 21.3341 16.6443 20.5651 17.6156 19.748C19.5909 18.0866 21 16.3439 21 14.5V4.74402L12 1.04068L3 4.74402Z" fill="#1C1C1C"/>
<path fill-rule="evenodd" clip-rule="evenodd" d="M17.8554 8.17461C18.0607 8.39383 18.0456 8.73444 17.8216 8.93539L11.2217 14.8585C11.1118 14.9571 10.9657 15.0078 10.817 14.999C10.6682 14.9903 10.5294 14.9228 10.4324 14.812L7.13242 11.0427C6.93474 10.8169 6.96145 10.477 7.19207 10.2835C7.4227 10.0899 7.76992 10.1161 7.9676 10.3419L10.8975 13.6884L17.0783 8.14154C17.3023 7.94059 17.6502 7.9554 17.8554 8.17461Z" fill="#1C1C1C"/>
</svg>
