<svg width="40" height="40" viewBox="0 0 40 40" fill="none" xmlns="http://www.w3.org/2000/svg">
<path fill-rule="evenodd" clip-rule="evenodd" d="M23.2988 8.345L27.3422 9.15C28.3024 9.332 29 10.1265 29 11.04V14.4C29 14.5505 28.9325 14.6975 28.8162 14.8025C28.8156 14.8032 28.8127 14.806 28.8075 14.8109C28.7106 14.9042 27.8334 15.7479 27.2143 17H25.9076C26.4883 15.5955 27.4087 14.571 27.7997 14.176V11.04C27.7997 10.655 27.5072 10.3225 27.1059 10.249L27.0834 10.2455H27.0758L22.5749 9.3495C22.2974 9.297 22.0986 9.0695 22.0986 8.8035V7.1235H17.8977V8.8035C17.8977 9.066 17.6989 9.2935 17.4213 9.3495L12.9204 10.2455H12.9129L12.8904 10.249C12.4891 10.326 12.1965 10.6585 12.1965 11.04V14.176C12.5877 14.5711 13.5086 15.5947 14.0893 17H12.7818C12.1357 15.6936 11.2085 14.8325 11.1806 14.8065L11.18 14.806C11.0675 14.701 11 14.554 11 14.4035V11.0435C11 10.1265 11.6976 9.332 12.6578 9.1535L12.6766 9.15L16.6974 8.3485V6.56C16.6974 6.252 16.9675 6 17.2976 6H22.6987C23.0288 6 23.2988 6.252 23.2988 6.56V8.345ZM13.0866 23C12.9439 24.0614 12.7713 25.1417 12.6128 26.0725C12.434 27.1103 12.2797 27.9196 12.2271 28.1959C12.2145 28.2616 12.2078 28.2972 12.2078 28.2985C12.174 28.463 12.2228 28.631 12.3353 28.757C12.4478 28.8865 12.6166 28.96 12.7966 28.96H19.398V32.88H15.1971C14.8671 32.88 14.597 33.132 14.597 33.44C14.597 33.748 14.8671 34 15.1971 34H24.7991C25.1292 34 25.3992 33.748 25.3992 33.44C25.3992 33.132 25.1292 32.88 24.7991 32.88H20.5982V28.96H27.1996C27.3797 28.96 27.5484 28.8865 27.661 28.757C27.7735 28.631 27.8223 28.4595 27.7885 28.2985C27.7885 28.2961 27.779 28.2459 27.7616 28.1547C27.7028 27.8455 27.5543 27.0644 27.3834 26.0725C27.225 25.1417 27.0524 24.0614 26.9096 23H25.6998C25.8163 23.8833 25.954 24.7805 26.0894 25.6H13.9069C14.0422 24.7805 14.18 23.8833 14.2964 23H13.0866ZM13.7156 26.72L13.513 27.84H26.4832L26.2807 26.72H13.7156Z" fill="#C00000"/>
<mask id="path-2-inside-1_2629_10315" fill="white">
<path d="M7 18H33V22H7V18Z"/>
</mask>
<path d="M7 18V17H6V18H7ZM33 18H34V17H33V18ZM7 19H33V17H7V19ZM32 18V22H34V18H32ZM8 22V18H6V22H8Z" fill="#C00000" mask="url(#path-2-inside-1_2629_10315)"/>
<path d="M20 19V21" stroke="#C00000"/>
<path d="M29 19V20" stroke="#C00000"/>
<path d="M17 19V20" stroke="#C00000"/>
<path d="M26 19V21" stroke="#C00000"/>
<path d="M14 19V21" stroke="#C00000"/>
<path d="M11 19V20" stroke="#C00000"/>
</svg>
