<svg width="40" height="40" viewBox="0 0 40 40" fill="none" xmlns="http://www.w3.org/2000/svg">
<path d="M20 13.5V33M20 13.5V10.25M20 13.5H16.8421C16.2175 13.5 15.607 13.3094 15.0877 12.9523C14.5684 12.5952 14.1636 12.0876 13.9246 11.4937C13.6856 10.8999 13.623 10.2464 13.7449 9.61596C13.8667 8.98552 14.1675 8.40642 14.6091 7.9519C15.0508 7.49738 15.6135 7.18785 16.226 7.06245C16.8386 6.93705 17.4735 7.00141 18.0506 7.24739C18.6276 7.49338 19.1208 7.90994 19.4678 8.4444C19.8148 8.97886 20 9.60721 20 10.25M20 13.5H23.1579C23.7825 13.5 24.393 13.3094 24.9123 12.9523C25.4316 12.5952 25.8364 12.0876 26.0754 11.4937C26.3144 10.8999 26.377 10.2464 26.2551 9.61596C26.1333 8.98552 25.8325 8.40642 25.3909 7.9519C24.9492 7.49738 24.3865 7.18785 23.774 7.06245C23.1614 6.93705 22.5264 7.00141 21.9494 7.24739C21.3724 7.49338 20.8792 7.90994 20.5322 8.4444C20.1852 8.97886 20 9.60721 20 10.25M8.94737 23.25H31.0526M8.94737 23.25C8.94737 20.2236 8.65684 17.205 8.08084 14.2384L8 13.825V13.5H32V13.825L31.9192 14.2384C31.3427 17.2056 31.0525 20.2241 31.0526 23.25M8.94737 23.25C8.94737 26.2764 8.65684 29.295 8.08084 32.2616L8 32.675V33H32V32.675L31.9192 32.2616C31.3427 29.2944 31.0525 26.2759 31.0526 23.25" stroke="#C00000"/>
</svg>
