<svg width="26" height="24" viewBox="0 0 26 24" fill="none" xmlns="http://www.w3.org/2000/svg">
<path d="M20.9444 23.9991C20.8237 23.9992 20.705 23.9696 20.5991 23.913L12.9992 19.8628L5.3993 23.913C5.2804 23.9768 5.14548 24.0066 5.01006 23.9988C4.87463 23.991 4.7442 23.9461 4.63375 23.8691C4.5233 23.7921 4.43731 23.6863 4.38568 23.5637C4.33405 23.4411 4.31887 23.3067 4.34187 23.1761L5.72578 15.0644L0.210383 9.67444C0.116959 9.58257 0.0511426 9.46739 0.0201137 9.34147C-0.0109153 9.21555 -0.00596564 9.08372 0.0344228 8.96035C0.0748112 8.83699 0.149088 8.72684 0.24915 8.64191C0.349213 8.55697 0.47122 8.50052 0.601864 8.47871L8.90674 7.12629L12.3535 0.389586C12.4135 0.272497 12.5057 0.174045 12.6198 0.105242C12.7338 0.0364397 12.8652 0 12.9992 0C13.1332 0 13.2646 0.0364397 13.3787 0.105242C13.4927 0.174045 13.5849 0.272497 13.645 0.389586L17.0917 7.12629L25.3966 8.47871C25.5275 8.50006 25.6499 8.55626 25.7503 8.64114C25.8507 8.72602 25.9252 8.83629 25.9656 8.95985C26.0061 9.0834 26.0109 9.21546 25.9796 9.34153C25.9483 9.46759 25.882 9.58278 25.7881 9.67444L20.2727 15.0644L21.6566 23.1761C21.6732 23.2772 21.6673 23.3806 21.6393 23.4792C21.6112 23.5778 21.5617 23.6694 21.494 23.7475C21.4264 23.8257 21.3423 23.8887 21.2474 23.9321C21.1525 23.9755 21.0492 23.9984 20.9444 23.9991Z" fill="#C00000"/>
</svg>
