<svg width="30" height="30" viewBox="0 0 30 30" fill="none" xmlns="http://www.w3.org/2000/svg">
<path opacity="0.4" d="M22.1694 11.0148C22.1694 15.0798 18.3512 18.8739 12.5444 22.9931H22.6201V25.8115H8.62012V23.1557C15.0368 18.0337 18.8815 14.5649 18.8815 11.2858C18.8815 9.38876 17.6618 8.27765 15.7792 8.27765C13.9497 8.27765 12.1997 9.38876 12.1997 12.4511H9.04436C8.99133 8.49445 11.6959 5.81152 15.9118 5.81152C19.4648 5.81152 22.1694 7.68144 22.1694 11.0148Z" fill="#C00000"/>
<path d="M21.1694 10.0148C21.1694 14.0798 17.3512 17.8739 11.5444 21.9931H21.6201V24.8115H7.62012V22.1557C14.0368 17.0337 17.8815 13.5649 17.8815 10.2858C17.8815 8.38876 16.6618 7.27765 14.7792 7.27765C12.9497 7.27765 11.1997 8.38876 11.1997 11.4511H8.04436C7.99133 7.49445 10.6959 4.81152 14.9118 4.81152C18.4648 4.81152 21.1694 6.68144 21.1694 10.0148Z" stroke="#C00000" stroke-width="0.8" stroke-linecap="square" stroke-linejoin="round"/>
</svg>
