<svg width="40" height="40" viewBox="0 0 40 40" fill="none" xmlns="http://www.w3.org/2000/svg">
<path d="M34.375 6.25V12.5C34.375 12.6658 34.3092 12.8247 34.1919 12.9419C34.0747 13.0592 33.9158 13.125 33.75 13.125C33.5842 13.125 33.4253 13.0592 33.3081 12.9419C33.1908 12.8247 33.125 12.6658 33.125 12.5V6.875H27.5C27.3342 6.875 27.1753 6.80915 27.0581 6.69194C26.9408 6.57473 26.875 6.41576 26.875 6.25C26.875 6.08424 26.9408 5.92527 27.0581 5.80806C27.1753 5.69085 27.3342 5.625 27.5 5.625H33.75C33.9158 5.625 34.0747 5.69085 34.1919 5.80806C34.3092 5.92527 34.375 6.08424 34.375 6.25ZM12.5 33.125H6.875V27.5C6.875 27.3342 6.80915 27.1753 6.69194 27.0581C6.57473 26.9408 6.41576 26.875 6.25 26.875C6.08424 26.875 5.92527 26.9408 5.80806 27.0581C5.69085 27.1753 5.625 27.3342 5.625 27.5V33.75C5.625 33.9158 5.69085 34.0747 5.80806 34.1919C5.92527 34.3092 6.08424 34.375 6.25 34.375H12.5C12.6658 34.375 12.8247 34.3092 12.9419 34.1919C13.0592 34.0747 13.125 33.9158 13.125 33.75C13.125 33.5842 13.0592 33.4253 12.9419 33.3081C12.8247 33.1908 12.6658 33.125 12.5 33.125ZM33.75 26.875C33.5842 26.875 33.4253 26.9408 33.3081 27.0581C33.1908 27.1753 33.125 27.3342 33.125 27.5V33.125H27.5C27.3342 33.125 27.1753 33.1908 27.0581 33.3081C26.9408 33.4253 26.875 33.5842 26.875 33.75C26.875 33.9158 26.9408 34.0747 27.0581 34.1919C27.1753 34.3092 27.3342 34.375 27.5 34.375H33.75C33.9158 34.375 34.0747 34.3092 34.1919 34.1919C34.3092 34.0747 34.375 33.9158 34.375 33.75V27.5C34.375 27.3342 34.3092 27.1753 34.1919 27.0581C34.0747 26.9408 33.9158 26.875 33.75 26.875ZM6.25 13.125C6.41576 13.125 6.57473 13.0592 6.69194 12.9419C6.80915 12.8247 6.875 12.6658 6.875 12.5V6.875H12.5C12.6658 6.875 12.8247 6.80915 12.9419 6.69194C13.0592 6.57473 13.125 6.41576 13.125 6.25C13.125 6.08424 13.0592 5.92527 12.9419 5.80806C12.8247 5.69085 12.6658 5.625 12.5 5.625H6.25C6.08424 5.625 5.92527 5.69085 5.80806 5.80806C5.69085 5.92527 5.625 6.08424 5.625 6.25V12.5C5.625 12.6658 5.69085 12.8247 5.80806 12.9419C5.92527 13.0592 6.08424 13.125 6.25 13.125ZM26.25 28.125H13.75C13.2527 28.125 12.7758 27.9275 12.4242 27.5758C12.0725 27.2242 11.875 26.7473 11.875 26.25V13.75C11.875 13.2527 12.0725 12.7758 12.4242 12.4242C12.7758 12.0725 13.2527 11.875 13.75 11.875H26.25C26.7473 11.875 27.2242 12.0725 27.5758 12.4242C27.9275 12.7758 28.125 13.2527 28.125 13.75V26.25C28.125 26.7473 27.9275 27.2242 27.5758 27.5758C27.2242 27.9275 26.7473 28.125 26.25 28.125ZM26.875 13.75C26.875 13.5842 26.8092 13.4253 26.6919 13.3081C26.5747 13.1908 26.4158 13.125 26.25 13.125H13.75C13.5842 13.125 13.4253 13.1908 13.3081 13.3081C13.1908 13.4253 13.125 13.5842 13.125 13.75V26.25C13.125 26.4158 13.1908 26.5747 13.3081 26.6919C13.4253 26.8092 13.5842 26.875 13.75 26.875H26.25C26.4158 26.875 26.5747 26.8092 26.6919 26.6919C26.8092 26.5747 26.875 26.4158 26.875 26.25V13.75Z" fill="#1C1C1C"/>
<path fill-rule="evenodd" clip-rule="evenodd" d="M23.4614 19.268C23.3947 19.188 23.2719 19.188 23.2053 19.268L20.0181 23.0926C19.5789 23.6196 18.782 23.6558 18.2969 23.1707L16.6667 21.6667C16.5889 21.589 16.4586 21.6064 16.4041 21.7018L12.9341 26.0814L12.0659 25.5852L15.5358 21.2057C15.9175 20.5378 16.8298 20.4156 17.3738 20.9596L19.004 22.4636C19.0733 22.5329 19.1872 22.5277 19.2499 22.4524L22.4371 18.6278C22.9035 18.0681 23.7632 18.0681 24.2296 18.6278L27.8841 23.0132L27.1159 23.6534L23.4614 19.268Z" fill="#1C1C1C"/>
<circle cx="17.5" cy="17.5" r="0.833333" fill="#1C1C1C"/>
</svg>
