<svg width="40" height="40" viewBox="0 0 40 40" fill="none" xmlns="http://www.w3.org/2000/svg">
<path fill-rule="evenodd" clip-rule="evenodd" d="M20 22C16.134 22 13 18.866 13 15C13 11.134 16.134 8 20 8C23.866 8 27 11.134 27 15C27 18.866 23.866 22 20 22ZM23.3725 22.2565C26.1055 20.9842 28 18.2133 28 15C28 10.5817 24.4183 7 20 7C15.5817 7 12 10.5817 12 15C12 18.2133 13.8945 20.9842 16.6275 22.2565C12.009 23.2718 8.47835 27.1894 8.04484 32C8.01516 32.3294 8 32.6629 8 33H9H31H32C32 32.6629 31.9848 32.3294 31.9552 32C31.5216 27.1894 27.991 23.2718 23.3725 22.2565ZM20 23H19C13.8147 23 9.5511 26.9467 9.04938 32H30.9506C30.4489 26.9467 26.1853 23 21 23H20Z" fill="#C00000"/>
</svg>
