<svg width="30" height="30" viewBox="0 0 30 30" fill="none" xmlns="http://www.w3.org/2000/svg">
<path opacity="0.4" d="M18.5758 20.0326C18.5758 17.5559 16.6572 16.7037 13.8832 16.7037H12.9758V14.0672H13.7535C16.6832 14.0672 18.1091 13.0818 18.1091 11.0845C18.1091 9.14042 16.5795 8.23496 14.8424 8.23496C12.5609 8.23496 11.2906 9.64641 11.0054 11.9101H7.99798C8.28317 8.23496 10.8498 5.81152 15.0239 5.81152C18.1609 5.81152 21.2721 7.27624 21.2721 10.8981C21.2721 12.8155 20.1832 14.4134 18.5239 15.239C20.7795 16.0912 21.7646 17.982 21.7646 19.9527C21.7646 23.8941 18.4721 25.8115 14.7128 25.8115C10.3572 25.8115 7.99798 22.8821 7.76465 19.4733H10.7721C11.0832 21.6038 12.3017 23.3615 14.7646 23.3615C16.9424 23.3615 18.5758 22.1364 18.5758 20.0326Z" fill="#C00000"/>
<path d="M17.5758 19.0326C17.5758 16.5559 15.6572 15.7037 12.8832 15.7037H11.9758V13.0672H12.7535C15.6832 13.0672 17.1091 12.0818 17.1091 10.0845C17.1091 8.14042 15.5795 7.23496 13.8424 7.23496C11.5609 7.23496 10.2906 8.64641 10.0054 10.9101H6.99798C7.28317 7.23496 9.84983 4.81152 14.0239 4.81152C17.1609 4.81152 20.2721 6.27624 20.2721 9.89807C20.2721 11.8155 19.1832 13.4134 17.5239 14.239C19.7795 15.0912 20.7646 16.982 20.7646 18.9527C20.7646 22.8941 17.4721 24.8115 13.7128 24.8115C9.35724 24.8115 6.99798 21.8821 6.76465 18.4733H9.77206C10.0832 20.6038 11.3017 22.3615 13.7646 22.3615C15.9424 22.3615 17.5758 21.1364 17.5758 19.0326Z" stroke="#C00000" stroke-width="0.8" stroke-linecap="square" stroke-linejoin="round"/>
</svg>
