<svg width="25" height="25" viewBox="0 0 25 25" fill="none" xmlns="http://www.w3.org/2000/svg">
<path fill-rule="evenodd" clip-rule="evenodd" d="M4.02781 9.72217C4.02781 14.4012 7.82094 18.1943 12.5 18.1943C17.179 18.1943 20.9722 14.4012 20.9722 9.72217C20.9722 5.04312 17.179 1.24999 12.5 1.24999C7.82094 1.24999 4.02781 5.04312 4.02781 9.72217ZM12.5 0C7.13058 0 2.77782 4.35276 2.77782 9.72217C2.77782 11.4387 3.22267 13.0513 4.00337 14.451L0 21.3906L4.06389 21.5648L6.24658 24.9999L8.41043 21.249L9.49236 19.3736L9.68947 19.0319C10.5792 19.3002 11.5228 19.4443 12.5 19.4443C13.4773 19.4443 14.4209 19.3001 15.3107 19.0319L15.5077 19.3733L16.5896 21.2487L18.7534 24.9996L20.9361 21.5645L25 21.3903L20.9967 14.4509C21.7773 13.0512 22.2222 11.4386 22.2222 9.72217C22.2222 4.35276 17.8694 0 12.5 0ZM8.82499 18.7258C7.09246 18.0179 5.60985 16.8244 4.54629 15.3146L1.61292 20.3994L4.66085 20.53L6.29786 23.1064L8.04566 20.0767L8.82499 18.7258ZM16.9544 20.0764L16.1752 18.7257C17.9077 18.0178 19.3903 16.8243 20.4538 15.3144L23.3871 20.3991L20.3392 20.5297L18.7022 23.1061L16.9544 20.0764ZM12.116 4H13.116V5.03834C14.437 5.20451 15.5459 5.92049 15.8415 7.37284H14.6341C14.4056 6.61831 13.7866 6.24082 13.116 6.09905V8.87857C14.4501 9.1697 16 9.68909 16 11.3995C16 12.944 14.6739 13.8271 13.116 13.9771V15H12.116V13.9758C10.3314 13.8047 9.21189 12.7368 9 11.1478H10.2195C10.4185 12.1772 11.0765 12.7822 12.116 12.9323V9.82792L11.7195 9.74567C10.5122 9.48202 9.29268 8.8229 9.29268 7.37284C9.29268 5.86032 10.7718 5.12968 12.116 5.01588V4ZM10.561 7.30093C10.561 6.47052 11.4356 6.13125 12.116 6.05052V8.65693L12 8.63116C11.1829 8.4514 10.561 8.06791 10.561 7.30093ZM13.116 12.9422V10.0437C14.0664 10.2884 14.7195 10.6806 14.7195 11.5073C14.7195 12.2532 14.1384 12.8149 13.116 12.9422Z" fill="#1C1C1C"/>
</svg>
